<svg xmlns="http://www.w3.org/2000/svg" fill="none" viewBox="0 0 16 16" role="none" focusable="false" class="jimu-svg jimu-svg-size-16 jimu-svg-color- jimu-icon jimu-icon-size-16 jimu-icon-color- svg-component app-root-emotion-cache-ltr-1i4c72n-SVG-root-Icon-svg" width="32" height="32" aria-hidden="true"><path fill="currentColor" fill-rule="evenodd" d="M16 5.16V11H9.5v-1h3.1L10 5.153V1H6v2.5H5V0h11zm-1 .794V10h-1.199l-1.164-2.17zm0-1.497V1h-3.98v3.813l1.055 1.968zM7.682 6.318a4.5 4.5 0 1 0-.373 6.698l2.848 2.848.707-.707-2.847-2.848a4.5 4.5 0 0 0-.335-5.991m-5.657 5.657a3.5 3.5 0 1 1 4.95-4.95 3.5 3.5 0 0 1-4.95 4.95" clip-rule="evenodd"></path></svg>