<svg xmlns="http://www.w3.org/2000/svg" fill="none" viewBox="0 0 16 16" role="none" focusable="false" class="jimu-svg jimu-svg-size-16 jimu-svg-color- jimu-icon jimu-icon-size-16 jimu-icon-color- svg-component app-root-emotion-cache-ltr-1i4c72n-SVG-root-Icon-svg" width="32" height="32" aria-hidden="true"><path fill="currentColor" fill-rule="evenodd" d="M15 3.5a1.5 1.5 0 1 1-3 0 1.5 1.5 0 0 1 3 0m1 0a2.5 2.5 0 0 1-4.467 1.543L5.915 7.85a2.5 2.5 0 0 1 0 1.297l5.618 2.81a2.5 2.5 0 1 1-.448.894l-5.618-2.81a2.5 2.5 0 1 1 0-3.085l5.618-2.809A2.503 2.503 0 0 1 13.5 1 2.5 2.5 0 0 1 16 3.5M3.5 10a1.5 1.5 0 1 0 0-3 1.5 1.5 0 0 0 0 3m10 5a1.5 1.5 0 1 0 0-3 1.5 1.5 0 0 0 0 3" clip-rule="evenodd"></path></svg>