<svg xmlns="http://www.w3.org/2000/svg" fill="none" viewBox="0 0 16 16" role="none" focusable="false" class="jimu-svg jimu-svg-size-16 jimu-svg-color- jimu-icon jimu-icon-size-16 jimu-icon-color- svg-component app-root-emotion-cache-ltr-1i4c72n-SVG-root-Icon-svg" width="32" height="32" aria-hidden="true"><path fill="currentColor" fill-rule="evenodd" d="m4.836 13.948.714.951A10.64 10.64 0 0 1 0 14.29l2.13-12.8a9.74 9.74 0 0 0 5.87 0 9.74 9.74 0 0 1 5.87 0l1.81 10.89-1.21-1.22L13 2.29A9.9 9.9 0 0 0 10.71 2a6.2 6.2 0 0 0-2.34.41A8.3 8.3 0 0 1 5.29 3c-.79 0-1.577-.08-2.35-.24L1.12 13.64a9.5 9.5 0 0 0 2.67.36q.524-.002 1.046-.051m6.846-7.63a4.5 4.5 0 1 0-.373 6.698l2.848 2.848.707-.707-2.847-2.848a4.5 4.5 0 0 0-.335-5.991m-5.657 5.657a3.5 3.5 0 1 1 4.95-4.95 3.5 3.5 0 0 1-4.95 4.95M8 12v-2H6V9h2V7h1v2h2v1H9v2z" clip-rule="evenodd"></path></svg>