<svg xmlns="http://www.w3.org/2000/svg" fill="none" viewBox="0 0 16 16" role="none" focusable="false" class="jimu-svg jimu-svg-size-16 jimu-svg-color- jimu-icon jimu-icon-size-16 jimu-icon-color- svg-component app-root-emotion-cache-ltr-1i4c72n-SVG-root-Icon-svg" width="32" height="32" aria-hidden="true"><path fill="currentColor" d="M8 5.5a1 1 0 1 0 0-2 1 1 0 0 0 0 2M6.5 7.5A.5.5 0 0 1 7 7h1.5v4.5h1a.5.5 0 0 1 0 1h-3a.5.5 0 0 1 0-1h1V8H7a.5.5 0 0 1-.5-.5"></path><path fill="currentColor" fill-rule="evenodd" d="M8 16A8 8 0 1 1 8 0a8 8 0 0 1 0 16m0-1A7 7 0 1 0 8 1a7 7 0 0 0 0 14" clip-rule="evenodd"></path></svg>